<?xml version="1.0" encoding="UTF-8" standalone="no"?><svg xmlns="http://www.w3.org/2000/svg" xmlns:xlink= "http://www.w3.org/1999/xlink" width="740.7407407407406" height="481.4814814814815" aria-label="A chart." style="overflow: hidden;"><defs id="_ABSTRACT_RENDERER_ID_2107"><clipPath id="_ABSTRACT_RENDERER_ID_2108"><rect x="141" y="92" width="458" height="298"></rect></clipPath></defs><rect x="0" y="0" width="740.7407407407406" height="481.4814814814815" stroke="none" stroke-width="0" fill="#ffffff"></rect><g><text text-anchor="start" x="141" y="69.05" font-family="Arial" font-size="13" font-weight="bold" stroke="none" stroke-width="0" fill="#000000">Total Monthly Conversions</text><rect x="141" y="58" width="458" height="13" stroke="none" stroke-width="0" fill-opacity="0" fill="#ffffff"></rect></g><g><rect x="612" y="92" width="115.74074074074065" height="55" stroke="none" stroke-width="0" fill-opacity="0" fill="#ffffff"></rect><g><rect x="612" y="92" width="115.74074074074065" height="13" stroke="none" stroke-width="0" fill-opacity="0" fill="#ffffff"></rect><g><text text-anchor="start" x="643" y="103.05" font-family="Arial" font-size="13" stroke="none" stroke-width="0" fill="#222222">Impressions</text></g><path d="M612,98.5L638,98.5" stroke="#abe9ea" stroke-width="3" fill-opacity="1" fill="none"></path><circle cx="625" cy="98.5" r="4.5" stroke="none" stroke-width="0" fill="#abe9ea"></circle></g><g><rect x="612" y="113" width="115.74074074074065" height="13" stroke="none" stroke-width="0" fill-opacity="0" fill="#ffffff"></rect><g><text text-anchor="start" x="643" y="124.05" font-family="Arial" font-size="13" stroke="none" stroke-width="0" fill="#222222">Engagements</text></g><path d="M612,119.5L638,119.5" stroke="#f27281" stroke-width="3" fill-opacity="1" fill="none"></path><circle cx="625" cy="119.5" r="4.5" stroke="none" stroke-width="0" fill="#f27281"></circle></g><g><rect x="612" y="134" width="115.74074074074065" height="13" stroke="none" stroke-width="0" fill-opacity="0" fill="#ffffff"></rect><g><text text-anchor="start" x="643" y="145.05" font-family="Arial" font-size="13" stroke="none" stroke-width="0" fill="#222222">Ad Clicks</text></g><path d="M612,140.5L638,140.5" stroke="#f6d88b" stroke-width="3" fill-opacity="1" fill="none"></path><circle cx="625" cy="140.5" r="4.5" stroke="none" stroke-width="0" fill="#f6d88b"></circle></g></g><g><rect x="141" y="92" width="458" height="298" stroke="none" stroke-width="0" fill-opacity="0" fill="#ffffff"></rect><g clip-path="url(https://www.rapidtables.com/tools/line-graph.html#_ABSTRACT_RENDERER_ID_2108)"><g><rect x="141" y="389" width="458" height="1" stroke="none" stroke-width="0" fill="#cccccc"></rect><rect x="141" y="330" width="458" height="1" stroke="none" stroke-width="0" fill="#cccccc"></rect><rect x="141" y="270" width="458" height="1" stroke="none" stroke-width="0" fill="#cccccc"></rect><rect x="141" y="211" width="458" height="1" stroke="none" stroke-width="0" fill="#cccccc"></rect><rect x="141" y="151" width="458" height="1" stroke="none" stroke-width="0" fill="#cccccc"></rect><rect x="141" y="92" width="458" height="1" stroke="none" stroke-width="0" fill="#cccccc"></rect><rect x="141" y="359" width="458" height="1" stroke="none" stroke-width="0" fill="#ebebeb"></rect><rect x="141" y="300" width="458" height="1" stroke="none" stroke-width="0" fill="#ebebeb"></rect><rect x="141" y="241" width="458" height="1" stroke="none" stroke-width="0" fill="#ebebeb"></rect><rect x="141" y="181" width="458" height="1" stroke="none" stroke-width="0" fill="#ebebeb"></rect><rect x="141" y="122" width="458" height="1" stroke="none" stroke-width="0" fill="#ebebeb"></rect></g><g><rect x="141" y="389" width="458" height="1" stroke="none" stroke-width="0" fill="#333333"></rect></g><g><path d="M198.625,331.6444C198.625,331.6444,274.7916666666667,190.4506,312.875,166.6312C350.9583333333333,142.8118,389.04166666666674,185.2432000000396,427.125,188.728C465.20833333333337,192.2127999999604,541.375,187.54,541.375,187.54" stroke="#abe9ea" stroke-width="3" fill-opacity="1" fill="none"></path><path d="M198.625,347.92C198.625,347.92,274.7916666666667,297.7864,312.875,287.332C350.9583333333333,276.87760000000003,389.04166666666674,292.816600000004,427.125,285.1936C465.20833333333337,277.57059999999603,541.375,241.594,541.375,241.594" stroke="#f27281" stroke-width="3" fill-opacity="1" fill="none"></path><path d="M198.625,353.86C198.625,353.86,274.7916666666667,326.14000000000397,312.875,330.1C350.9583333333333,334.059999999996,389.04166666666674,371.68,427.125,377.62C465.20833333333337,383.56,541.375,365.74,541.375,365.74" stroke="#f6d88b" stroke-width="3" fill-opacity="1" fill="none"></path></g></g><g><circle cx="198.625" cy="331.6444" r="4.5" stroke="none" stroke-width="0" fill="#abe9ea"></circle><circle cx="312.875" cy="166.6312" r="4.5" stroke="none" stroke-width="0" fill="#abe9ea"></circle><circle cx="427.125" cy="188.728" r="4.5" stroke="none" stroke-width="0" fill="#abe9ea"></circle><circle cx="541.375" cy="187.54" r="4.5" stroke="none" stroke-width="0" fill="#abe9ea"></circle><circle cx="198.625" cy="347.92" r="4.5" stroke="none" stroke-width="0" fill="#f27281"></circle><circle cx="312.875" cy="287.332" r="4.5" stroke="none" stroke-width="0" fill="#f27281"></circle><circle cx="427.125" cy="285.1936" r="4.5" stroke="none" stroke-width="0" fill="#f27281"></circle><circle cx="541.375" cy="241.594" r="4.5" stroke="none" stroke-width="0" fill="#f27281"></circle><circle cx="198.625" cy="353.86" r="4.5" stroke="none" stroke-width="0" fill="#f6d88b"></circle><circle cx="312.875" cy="330.1" r="4.5" stroke="none" stroke-width="0" fill="#f6d88b"></circle><circle cx="427.125" cy="377.62" r="4.5" stroke="none" stroke-width="0" fill="#f6d88b"></circle><circle cx="541.375" cy="365.74" r="4.5" stroke="none" stroke-width="0" fill="#f6d88b"></circle></g><g><g><text text-anchor="middle" x="198.625" y="409.05" font-family="Arial" font-size="13" stroke="none" stroke-width="0" fill="#222222">Jan</text></g><g><text text-anchor="middle" x="312.875" y="409.05" font-family="Arial" font-size="13" stroke="none" stroke-width="0" fill="#222222">Feb</text></g><g><text text-anchor="middle" x="427.125" y="409.05" font-family="Arial" font-size="13" stroke="none" stroke-width="0" fill="#222222">Mar</text></g><g><text text-anchor="middle" x="541.375" y="409.05" font-family="Arial" font-size="13" stroke="none" stroke-width="0" fill="#222222">Apr</text></g><g><text text-anchor="end" x="128" y="394.05" font-family="Arial" font-size="13" stroke="none" stroke-width="0" fill="#444444">0</text></g><g><text text-anchor="end" x="128" y="334.65000000000003" font-family="Arial" font-size="13" stroke="none" stroke-width="0" fill="#444444">500</text></g><g><text text-anchor="end" x="128" y="275.25" font-family="Arial" font-size="13" stroke="none" stroke-width="0" fill="#444444">1,000</text></g><g><text text-anchor="end" x="128" y="215.85000000000002" font-family="Arial" font-size="13" stroke="none" stroke-width="0" fill="#444444">1,500</text></g><g><text text-anchor="end" x="128" y="156.45000000000002" font-family="Arial" font-size="13" stroke="none" stroke-width="0" fill="#444444">2,000</text></g><g><text text-anchor="end" x="128" y="97.05" font-family="Arial" font-size="13" stroke="none" stroke-width="0" fill="#444444">2,500</text></g></g></g><g><g><text text-anchor="middle" x="370" y="450.7907407407408" font-family="Arial" font-size="13" font-style="italic" stroke="none" stroke-width="0" fill="#222222">Month</text><rect x="141" y="439.74074074074076" width="458" height="13" stroke="none" stroke-width="0" fill-opacity="0" fill="#ffffff"></rect></g><g><text text-anchor="middle" x="52.05" y="241" font-family="Arial" font-size="13" font-style="italic" transform="rotate(-90 52.05 241)" stroke="none" stroke-width="0" fill="#222222">Total Conversions</text><path d="M40.99999999999999,390L41.00000000000001,92L54.00000000000001,92L53.99999999999999,390Z" stroke="none" stroke-width="0" fill-opacity="0" fill="#ffffff"></path></g></g><g></g></svg>